<svg xmlns="http://www.w3.org/2000/svg" height="15" viewBox="0 96 960 960" width="15" fill="dimgray"><path d="M480 816q20 0 34-14t14-34q0-20-14-34t-34-14q-20 0-34 14t-14 34q0 20 14 34t34 14Zm-36-153h73q0-37 6.5-52.5T555 571q35-34 48.5-58t13.5-53q0-55-37.5-89.5T484 336q-51 0-88.5 27T343 436l65 27q9-28 28.5-43.5T482 404q28 0 46 16t18 42q0 23-15.5 41T496 538q-35 32-43.5 52.5T444 663Zm36 297q-79 0-149-30t-122.5-82.5Q156 795 126 725T96 576q0-80 30-149.5t82.5-122Q261 252 331 222t149-30q80 0 149.5 30t122 82.5Q804 357 834 426.5T864 576q0 79-30 149t-82.5 122.5Q699 900 629.5 930T480 960Z"/></svg>